<?xml version="1.0" standalone="no"?>
<!DOCTYPE svg PUBLIC "-//W3C//DTD SVG 20010904//EN"
 "http://www.w3.org/TR/2001/REC-SVG-20010904/DTD/svg10.dtd">
<svg version="1.0" xmlns="http://www.w3.org/2000/svg"
 width="100.000000pt" height="100.000000pt" viewBox="0 0 100.000000 100.000000"
 preserveAspectRatio="xMidYMid meet">
<metadata>
Created by potrace 1.16, written by Peter Selinger 2001-2019
</metadata>
<g transform="translate(0.000000,100.000000) scale(0.100000,-0.100000)"
fill="#000000" stroke="none">
<path d="M140 500 l0 -440 90 0 90 0 0 133 0 133 48 46 47 47 129 -180 129
-179 94 0 c85 0 93 2 93 19 0 10 -74 121 -165 247 -145 199 -163 229 -151 243
7 9 77 87 155 175 77 87 141 167 141 177 0 17 -8 19 -98 19 l-98 0 -160 -176
-159 -175 -3 175 -2 176 -90 0 -90 0 0 -440z"/>
</g>
</svg>
