<?xml version="1.0" standalone="no"?>
<!DOCTYPE svg PUBLIC "-//W3C//DTD SVG 20010904//EN"
 "http://www.w3.org/TR/2001/REC-SVG-20010904/DTD/svg10.dtd">
<svg version="1.0" xmlns="http://www.w3.org/2000/svg"
 width="802.000000pt" height="292.000000pt" viewBox="0 0 802.000000 292.000000"
 preserveAspectRatio="xMidYMid meet">

<g transform="translate(0.000000,292.000000) scale(0.100000,-0.100000)"
fill="#000000" stroke="none">
<path d="M2830 1250 l0 -1250 305 0 305 0 0 231 0 230 81 100 c45 54 85 99 88
99 4 0 101 -147 216 -326 116 -180 215 -328 220 -330 6 -3 166 -3 357 -2 l348
3 -306 450 c-168 248 -308 455 -311 462 -2 6 143 188 324 404 180 216 334 401
341 411 13 17 -2 18 -341 18 l-354 0 -329 -421 -329 -421 -3 796 -2 796 -305
0 -305 0 0 -1250z"/>
<path d="M5167 2493 c-4 -3 -7 -109 -7 -235 l0 -228 325 0 325 0 0 235 0 235
-318 0 c-175 0 -322 -3 -325 -7z"/>
<path d="M6380 1250 l0 -1250 310 0 310 0 -2 1248 -3 1247 -307 3 -308 2 0
-1250z"/>
<path d="M7580 1250 l0 -1250 220 0 220 0 0 1250 0 1250 -220 0 -220 0 0
-1250z"/>
<path d="M1190 2420 c-464 -49 -815 -276 -915 -591 -62 -196 -35 -425 70 -595
120 -192 364 -325 745 -405 267 -55 409 -89 461 -108 62 -24 141 -87 164 -132
19 -35 19 -119 1 -162 -29 -69 -128 -127 -262 -153 -133 -25 -391 -15 -532 20
-203 51 -364 121 -527 230 -72 48 -107 66 -132 66 l-33 0 0 -295 0 -295 918 0
919 0 77 66 c126 107 201 227 248 394 19 70 16 291 -6 370 -59 216 -217 368
-488 470 -106 40 -285 86 -593 153 -248 54 -322 88 -363 167 -50 97 -9 204
102 266 88 49 195 68 371 67 159 0 240 -13 390 -60 104 -33 282 -118 369 -176
48 -33 79 -47 102 -47 l34 0 0 294 0 293 -57 22 c-64 24 -241 73 -353 96 -196
41 -537 63 -710 45z"/>
<path d="M5180 875 l0 -875 310 0 310 0 0 875 0 875 -310 0 -310 0 0 -875z"/>
</g>
</svg>
